ply
format ascii 1.0
comment Created by Blender 2.75 (sub 0) - www.blender.org, source file: 'publico_lowpoly.blend'
element vertex 128
property float x
property float y
property float z
property float nx
property float ny
property float nz
element face 38
property list uchar uint vertex_indices
end_header
1.916691 3.678221 2.281933 -0.211117 -0.976692 -0.038761
2.090715 3.678221 1.334093 -0.211117 -0.976692 -0.038761
2.206702 3.617076 2.243075 -0.211117 -0.976692 -0.038761
1.882880 3.678221 3.030703 -0.245105 -0.969345 -0.017126
2.335210 3.570071 2.678370 -0.245105 -0.969345 -0.017126
2.310592 3.570071 3.030703 -0.245105 -0.969345 -0.017126
2.738303 3.678221 3.030703 0.245105 -0.969345 0.017126
2.310592 3.570071 3.030703 0.245105 -0.969345 0.017126
2.335210 3.570071 2.678370 0.245105 -0.969345 0.017126
3.182985 3.678221 2.717784 0.184570 -0.982331 0.030978
2.894388 3.617076 2.498320 0.184570 -0.982331 0.030978
3.354949 3.678221 1.693219 0.184570 -0.982331 0.030978
2.096161 3.504316 4.617921 -0.375662 -0.907043 0.190135
2.021002 3.558507 4.727941 -0.375662 -0.907043 0.190135
1.911072 3.577778 4.602681 -0.375662 -0.907043 0.190135
2.076229 3.561558 3.761226 -0.159222 -0.981446 0.106827
1.883271 3.636549 4.162584 -0.159222 -0.981446 0.106827
1.891961 3.586872 3.719141 -0.159222 -0.981446 0.106827
2.221007 3.570758 4.011500 -0.129439 -0.981906 0.138228
2.181517 3.605271 4.219688 -0.129439 -0.981906 0.138228
1.883271 3.636549 4.162584 -0.129439 -0.981906 0.138228
2.076229 3.561558 3.761226 -0.139329 -0.983340 0.116745
2.221007 3.570758 4.011500 -0.139329 -0.983340 0.116745
1.883271 3.636549 4.162584 -0.139329 -0.983340 0.116745
2.787496 3.632277 4.207799 -0.005256 -0.999964 0.006642
3.014214 3.634936 4.645163 -0.005256 -0.999964 0.006642
2.809098 3.634760 4.598710 -0.005256 -0.999964 0.006642
2.666146 3.635370 4.435167 -0.005256 -0.999964 0.006642
3.014214 3.634936 4.645163 0.002310 -0.999977 -0.006420
2.551008 3.629468 5.330115 0.002310 -0.999977 -0.006420
2.809098 3.634760 4.598710 0.002310 -0.999977 -0.006420
2.597627 3.635346 3.903608 -0.001678 -0.999999 0.000263
2.787496 3.632277 4.207799 -0.001678 -0.999999 0.000263
2.666146 3.635370 4.435167 -0.001678 -0.999999 0.000263
2.476323 3.632817 4.275555 -0.001678 -0.999999 0.000263
1.622913 3.636330 3.990218 -0.013995 -0.999890 -0.004974
1.685632 3.630506 4.244363 -0.013995 -0.999890 -0.004974
1.488597 3.636241 4.386033 -0.013995 -0.999890 -0.004974
1.340690 3.635142 4.282869 -0.013995 -0.999890 -0.004974
1.340690 3.635142 4.282869 0.009113 -0.999956 -0.002416
1.488597 3.636241 4.386033 0.009113 -0.999956 -0.002416
1.165251 3.631757 5.022286 0.009113 -0.999956 -0.002416
1.911276 3.636549 3.754519 0.014341 -0.999881 -0.005728
1.883227 3.639096 4.159168 0.014341 -0.999881 -0.005728
1.685632 3.630506 4.244363 0.014341 -0.999881 -0.005728
1.622913 3.636330 3.990218 0.014341 -0.999881 -0.005728
2.096161 3.504316 4.617921 0.700351 -0.697650 0.150970
2.144426 3.577778 4.733495 0.700351 -0.697650 0.150970
2.040548 3.507843 4.892202 0.700351 -0.697650 0.150970
2.174315 3.559961 4.201576 -0.409551 -0.443672 -0.797135
2.164971 3.490839 4.253686 -0.409551 -0.443672 -0.797135
1.976697 3.577778 4.293190 -0.409551 -0.443672 -0.797135
2.072269 3.611804 4.233988 -0.409551 -0.443672 -0.797135
2.257170 3.611804 4.269391 0.676503 -0.438851 -0.591399
2.324114 3.577778 4.359710 0.676503 -0.438851 -0.591399
2.164971 3.490839 4.253686 0.676503 -0.438851 -0.591399
2.174315 3.559961 4.201576 0.676503 -0.438851 -0.591399
2.164971 3.490839 4.253686 -0.397336 -0.915646 -0.060968
2.096161 3.504316 4.617921 -0.397336 -0.915646 -0.060968
1.911072 3.577778 4.602681 -0.397336 -0.915646 -0.060968
1.976697 3.577778 4.293190 -0.397336 -0.915646 -0.060968
2.324114 3.577778 4.359710 0.396195 -0.913764 0.089799
2.270774 3.577778 4.671552 0.396195 -0.913764 0.089799
2.096161 3.504316 4.617921 0.396195 -0.913764 0.089799
2.164971 3.490839 4.253686 0.396195 -0.913764 0.089799
2.444766 3.561558 3.845396 0.093397 -0.979214 0.180048
2.221007 3.570758 4.011500 0.093397 -0.979214 0.180048
2.260497 3.536245 3.803311 0.093397 -0.979214 0.180048
1.844530 3.678221 2.298798 -0.204021 -0.930103 -0.305423
1.916691 3.678221 2.281933 -0.204021 -0.930103 -0.305423
2.206702 3.617076 2.243075 -0.204021 -0.930103 -0.305423
2.262166 3.615056 2.243513 -0.204021 -0.930103 -0.305423
3.235012 3.678221 2.782189 0.166323 -0.985988 0.012805
2.825397 3.615056 2.498734 0.166323 -0.985988 0.012805
2.894388 3.617076 2.498320 0.166323 -0.985988 0.012805
3.182985 3.678221 2.717784 0.166323 -0.985988 0.012805
1.882880 3.678221 3.030703 -0.201523 -0.979309 -0.018517
1.844530 3.678221 2.298798 -0.201523 -0.979309 -0.018517
2.262166 3.615056 2.243513 -0.201523 -0.979309 -0.018517
2.335210 3.570071 2.678370 -0.201523 -0.979309 -0.018517
2.738303 3.678221 3.030703 0.103016 -0.985626 0.133897
2.335210 3.570071 2.678370 0.103016 -0.985626 0.133897
2.825397 3.615056 2.498734 0.103016 -0.985626 0.133897
3.235012 3.678221 2.782189 0.103016 -0.985626 0.133897
2.304592 3.553276 3.144695 0.139719 -0.990058 -0.016248
2.444766 3.561558 3.845396 0.139719 -0.990058 -0.016248
2.260497 3.536245 3.803311 0.139719 -0.990058 -0.016248
2.738199 3.632702 3.114519 0.144555 -0.988759 -0.038210
2.629034 3.586872 3.887481 0.144555 -0.988759 -0.038210
2.444766 3.561558 3.845396 0.144555 -0.988759 -0.038210
2.304592 3.553276 3.144695 0.178503 -0.983645 -0.024083
2.738199 3.632702 3.114519 0.178503 -0.983645 -0.024083
2.444766 3.561558 3.845396 0.178503 -0.983645 -0.024083
2.270774 3.577778 4.671552 0.223011 -0.862173 0.454889
2.144426 3.577778 4.733495 0.223011 -0.862173 0.454889
2.096161 3.504316 4.617921 0.223011 -0.862173 0.454889
2.040548 3.507843 4.892202 -0.700323 -0.701330 -0.132979
2.021002 3.558507 4.727941 -0.700323 -0.701330 -0.132979
2.096161 3.504316 4.617921 -0.700323 -0.701330 -0.132979
2.304592 3.553276 3.144695 -0.216855 -0.971174 -0.098972
1.891961 3.586872 3.719141 -0.216855 -0.971174 -0.098972
1.903737 3.649740 3.076442 -0.216855 -0.971174 -0.098972
2.260497 3.536245 3.803311 -0.236906 -0.796555 0.556215
2.076229 3.561558 3.761226 -0.236906 -0.796555 0.556215
1.891961 3.586872 3.719141 -0.236906 -0.796555 0.556215
2.304592 3.553276 3.144695 -0.128340 -0.991140 -0.034223
2.260497 3.536245 3.803311 -0.128340 -0.991140 -0.034223
1.891961 3.586872 3.719141 -0.128340 -0.991140 -0.034223
1.903737 3.649740 3.076442 -0.212942 -0.945047 -0.248075
1.882880 3.678221 3.030703 -0.212942 -0.945047 -0.248075
2.310592 3.570071 3.030703 -0.212942 -0.945047 -0.248075
2.304592 3.553276 3.144695 -0.212942 -0.945047 -0.248075
2.738303 3.678221 3.030703 0.194002 -0.937371 -0.289309
2.738199 3.632702 3.114519 0.194002 -0.937371 -0.289309
2.304592 3.553276 3.144695 0.194002 -0.937371 -0.289309
2.310592 3.570071 3.030703 0.194002 -0.937371 -0.289309
2.629034 3.586872 3.887481 0.093396 -0.979214 0.180047
2.221007 3.570758 4.011500 0.093396 -0.979214 0.180047
2.444766 3.561558 3.845396 0.093396 -0.979214 0.180047
2.479764 3.636549 4.276793 0.069293 -0.981960 0.175933
2.181517 3.605271 4.219688 0.069293 -0.981960 0.175933
2.221007 3.570758 4.011500 0.069293 -0.981960 0.175933
2.629034 3.586872 3.887481 0.087135 -0.983442 0.158898
2.479764 3.636549 4.276793 0.087135 -0.983442 0.158898
2.221007 3.570758 4.011500 0.087135 -0.983442 0.158898
2.260497 3.536245 3.803311 -0.164213 -0.977697 0.130932
2.221007 3.570758 4.011500 -0.164213 -0.977697 0.130932
2.076229 3.561558 3.761226 -0.164213 -0.977697 0.130932
3 0 1 2
3 3 4 5
3 6 7 8
3 9 10 11
3 12 13 14
3 15 16 17
3 18 19 20
3 21 22 23
4 24 25 26 27
3 28 29 30
4 31 32 33 34
4 35 36 37 38
3 39 40 41
4 42 43 44 45
3 46 47 48
4 49 50 51 52
4 53 54 55 56
4 57 58 59 60
4 61 62 63 64
3 65 66 67
4 68 69 70 71
4 72 73 74 75
4 76 77 78 79
4 80 81 82 83
3 84 85 86
3 87 88 89
3 90 91 92
3 93 94 95
3 96 97 98
3 99 100 101
3 102 103 104
3 105 106 107
4 108 109 110 111
4 112 113 114 115
3 116 117 118
3 119 120 121
3 122 123 124
3 125 126 127
