ply
format ascii 1.0
comment Created by Blender 2.75 (sub 0) - www.blender.org, source file: 'ForestTutorial.blend'
element vertex 229
property float x
property float y
property float z
property float nx
property float ny
property float nz
element face 80
property list uchar uint vertex_indices
end_header
0.000000 -3.000000 -0.424696 0.000000 0.000000 -1.000000
0.558576 -3.309011 -0.424696 0.000000 0.000000 -1.000000
-0.213353 -3.499995 -0.424696 0.000000 0.000000 -1.000000
0.949424 -3.523677 -0.424455 0.000338 -0.000507 -1.000000
0.558576 -3.309011 -0.424696 0.000338 -0.000507 -1.000000
1.117190 -2.999996 -0.424663 0.000338 -0.000507 -1.000000
-0.690441 -3.000000 -0.424696 0.000000 0.000000 -1.000000
-0.213353 -2.500005 -0.424696 0.000000 -0.000000 -1.000000
0.558576 -2.690989 -0.424696 -0.000000 -0.000000 -1.000000
0.949424 -3.523677 -0.424455 0.844952 -0.270872 -0.461178
1.117190 -2.999996 -0.424663 0.844952 -0.270872 -0.461178
1.251028 -3.308758 0.001899 0.844952 -0.270872 -0.461178
-0.363298 -3.849917 -0.424610 0.058488 -0.996139 -0.065465
0.344931 -3.808333 -0.424616 0.058488 -0.996139 -0.065465
-0.060325 -3.861107 0.016345 0.058488 -0.996139 -0.065465
-1.162109 -3.001802 -0.433246 -0.865140 -0.457676 -0.205100
-0.900374 -3.499408 -0.426879 -0.865140 -0.457676 -0.205100
-1.092691 -3.282494 -0.099702 -0.865140 -0.457676 -0.205100
-0.362406 -2.150733 -0.425270 -0.537927 0.821086 -0.190924
-0.901804 -2.504433 -0.426639 -0.537927 0.821086 -0.190924
-0.717120 -2.296103 -0.051044 -0.537927 0.821086 -0.190924
0.950866 -2.474205 -0.424172 0.387473 0.827836 -0.405650
0.345226 -2.190988 -0.424696 0.387473 0.827836 -0.405650
0.836158 -2.182832 0.060881 0.387473 0.827836 -0.405650
0.949424 -3.523677 -0.424455 0.562507 -0.826580 0.018748
1.251028 -3.308758 0.001899 0.562507 -0.826580 0.018748
0.713425 -3.674294 0.015854 0.562507 -0.826580 0.018748
-0.363298 -3.849917 -0.424610 -0.082375 -0.996109 0.031321
-0.060325 -3.861107 0.016345 -0.082375 -0.996109 0.031321
-0.749202 -3.805109 -0.014494 -0.082375 -0.996109 0.031321
-1.162109 -3.001802 -0.433246 -0.969977 0.044275 0.239132
-1.092691 -3.282494 -0.099702 -0.969977 0.044275 0.239132
-1.075748 -2.770372 -0.125797 -0.969977 0.044275 0.239132
-0.362406 -2.150733 -0.425270 -0.381497 0.924367 -0.002529
-0.717120 -2.296103 -0.051044 -0.381497 0.924367 -0.002529
0.000000 -2.000000 0.000000 -0.381497 0.924367 -0.002529
0.950866 -2.474205 -0.424172 0.706546 0.667832 -0.234080
0.836158 -2.182832 0.060881 0.706546 0.667832 -0.234080
1.307687 -2.683542 0.055614 0.706546 0.667832 -0.234080
0.245239 -3.579561 0.479121 0.211047 -0.815642 0.538691
0.855655 -3.378776 0.543986 0.211047 -0.815642 0.538691
0.147212 -3.347711 0.868575 0.211047 -0.815642 0.538691
-0.756466 -3.496069 0.323140 -0.603404 -0.477001 0.639041
-0.373099 -3.706996 0.527685 -0.603404 -0.477001 0.639041
-0.441009 -3.288807 0.775712 -0.603404 -0.477001 0.639041
-0.696681 -2.636193 0.256657 -0.811068 0.252731 0.527538
-0.796956 -3.059897 0.305474 -0.811068 0.252731 0.527538
-0.419334 -2.770412 0.747368 -0.811068 0.252731 0.527538
0.422970 -2.141737 0.504092 -0.143666 0.760633 0.633086
-0.311853 -2.270827 0.492436 -0.143666 0.760633 0.633086
0.254925 -2.494728 0.890066 -0.143666 0.760633 0.633086
1.247197 -2.990792 0.515992 0.622827 0.044391 0.781099
1.038557 -2.482899 0.653491 0.622827 0.044391 0.781099
0.753093 -2.992048 0.910048 0.622827 0.044391 0.781099
-0.213353 -3.499995 -0.424696 0.000006 -0.000249 -1.000000
0.344931 -3.808333 -0.424616 0.000006 -0.000249 -1.000000
-0.363298 -3.849917 -0.424610 0.000006 -0.000249 -1.000000
-0.213353 -3.499995 -0.424696 0.000044 -0.000179 -1.000000
0.558576 -3.309011 -0.424696 0.000044 -0.000179 -1.000000
0.344931 -3.808333 -0.424616 0.000044 -0.000179 -1.000000
0.558576 -3.309011 -0.424696 0.000428 -0.000343 -1.000000
0.949424 -3.523677 -0.424455 0.000428 -0.000343 -1.000000
0.344931 -3.808333 -0.424616 0.000428 -0.000343 -1.000000
1.117190 -2.999996 -0.424663 0.000697 0.001155 -0.999999
0.558576 -2.690989 -0.424696 0.000697 0.001155 -0.999999
0.950866 -2.474205 -0.424172 0.000697 0.001155 -0.999999
1.117190 -2.999996 -0.424663 0.000058 0.000000 -1.000000
0.558576 -3.309011 -0.424696 0.000058 0.000000 -1.000000
0.558576 -2.690989 -0.424696 0.000058 0.000000 -1.000000
-0.690441 -3.000000 -0.424696 0.018138 -0.003254 -0.999830
-0.900374 -3.499408 -0.426879 0.018138 -0.003254 -0.999830
-1.162109 -3.001802 -0.433246 0.018138 -0.003254 -0.999830
-0.690441 -3.000000 -0.424696 0.003180 0.003035 -0.999990
-0.213353 -3.499995 -0.424696 0.003180 0.003035 -0.999990
-0.900374 -3.499408 -0.426879 0.003180 0.003035 -0.999990
-0.213353 -3.499995 -0.424696 0.003176 -0.001607 -0.999994
-0.363298 -3.849917 -0.424610 0.003176 -0.001607 -0.999994
-0.900374 -3.499408 -0.426879 0.003176 -0.001607 -0.999994
-0.213353 -2.500005 -0.424696 0.002825 -0.000440 -0.999996
-0.901804 -2.504433 -0.426639 0.002825 -0.000440 -0.999996
-0.362406 -2.150733 -0.425270 0.002825 -0.000440 -0.999996
-0.213353 -2.500005 -0.424696 0.002839 -0.002709 -0.999992
-0.690441 -3.000000 -0.424696 0.002839 -0.002709 -0.999992
-0.901804 -2.504433 -0.426639 0.002839 -0.002709 -0.999992
-0.690441 -3.000000 -0.424696 0.018111 0.003805 -0.999829
-1.162109 -3.001802 -0.433246 0.018111 0.003805 -0.999829
-0.901804 -2.504433 -0.426639 0.018111 0.003805 -0.999829
0.558576 -2.690989 -0.424696 0.001081 0.000461 -0.999999
0.345226 -2.190988 -0.424696 0.001081 0.000461 -0.999999
0.950866 -2.474205 -0.424172 0.001081 0.000461 -0.999999
0.345226 -2.190988 -0.424696 0.000000 -0.000000 -1.000000
-0.213353 -2.500005 -0.424696 0.000736 -0.001331 -0.999999
-0.362406 -2.150733 -0.425270 0.000736 -0.001331 -0.999999
0.345226 -2.190988 -0.424696 0.000736 -0.001331 -0.999999
1.251028 -3.308758 0.001899 0.993177 -0.095727 0.066609
1.307687 -2.683542 0.055614 0.993177 -0.095727 0.066609
1.247197 -2.990792 0.515992 0.993177 -0.095727 0.066609
1.251028 -3.308758 0.001899 0.940244 -0.056358 -0.335804
1.117190 -2.999996 -0.424663 0.940244 -0.056358 -0.335804
1.307687 -2.683542 0.055614 0.940244 -0.056358 -0.335804
1.117190 -2.999996 -0.424663 0.825634 0.261641 -0.499873
0.950866 -2.474205 -0.424172 0.825634 0.261641 -0.499873
1.307687 -2.683542 0.055614 0.825634 0.261641 -0.499873
-0.060325 -3.861107 0.016345 0.215359 -0.890930 0.399830
0.713425 -3.674294 0.015854 0.215359 -0.890930 0.399830
0.245239 -3.579561 0.479121 0.215359 -0.890930 0.399830
-0.060325 -3.861107 0.016345 0.233604 -0.967286 0.098925
0.344931 -3.808333 -0.424616 0.233604 -0.967286 0.098925
0.713425 -3.674294 0.015854 0.233604 -0.967286 0.098925
0.344931 -3.808333 -0.424616 0.424651 -0.901740 -0.080851
0.949424 -3.523677 -0.424455 0.424651 -0.901740 -0.080851
0.713425 -3.674294 0.015854 0.424651 -0.901740 -0.080851
-1.092691 -3.282494 -0.099702 -0.794215 -0.456638 0.400878
-0.749202 -3.805109 -0.014494 -0.794215 -0.456638 0.400878
-0.756466 -3.496069 0.323140 -0.794215 -0.456638 0.400878
-1.092691 -3.282494 -0.099702 -0.821796 -0.558512 -0.112769
-0.900374 -3.499408 -0.426879 -0.821796 -0.558512 -0.112769
-0.749202 -3.805109 -0.014494 -0.821796 -0.558512 -0.112769
-0.900374 -3.499408 -0.426879 -0.502471 -0.772438 -0.388411
-0.363298 -3.849917 -0.424610 -0.502471 -0.772438 -0.388411
-0.749202 -3.805109 -0.014494 -0.502471 -0.772438 -0.388411
-0.717120 -2.296103 -0.051044 -0.708231 0.449774 0.544162
-1.075748 -2.770372 -0.125797 -0.708231 0.449774 0.544162
-0.696681 -2.636193 0.256657 -0.708231 0.449774 0.544162
-0.717120 -2.296103 -0.051044 -0.800810 0.595550 0.063435
-0.901804 -2.504433 -0.426639 -0.800810 0.595550 0.063435
-1.075748 -2.770372 -0.125797 -0.800810 0.595550 0.063435
-0.901804 -2.504433 -0.426639 -0.880949 0.462393 -0.100610
-1.162109 -3.001802 -0.433246 -0.880949 0.462393 -0.100610
-1.075748 -2.770372 -0.125797 -0.880949 0.462393 -0.100610
0.836158 -2.182832 0.060881 0.205468 0.973408 0.101293
0.000000 -2.000000 0.000000 0.205468 0.973408 0.101293
0.422970 -2.141737 0.504092 0.205468 0.973408 0.101293
0.836158 -2.182832 0.060881 0.224051 0.943957 -0.242377
0.345226 -2.190988 -0.424696 0.224051 0.943957 -0.242377
0.000000 -2.000000 0.000000 0.224051 0.943957 -0.242377
0.345226 -2.190988 -0.424696 0.052990 0.926148 -0.373420
-0.362406 -2.150733 -0.425270 0.052990 0.926148 -0.373420
0.000000 -2.000000 0.000000 0.052990 0.926148 -0.373420
0.713425 -3.674294 0.015854 0.242187 -0.873028 0.423282
0.855655 -3.378776 0.543986 0.242187 -0.873028 0.423282
0.245239 -3.579561 0.479121 0.242187 -0.873028 0.423282
0.713425 -3.674294 0.015854 0.542611 -0.786805 0.294129
1.251028 -3.308758 0.001899 0.542611 -0.786805 0.294129
0.855655 -3.378776 0.543986 0.542611 -0.786805 0.294129
1.251028 -3.308758 0.001899 0.659687 -0.636956 0.398874
1.247197 -2.990792 0.515992 0.659687 -0.636956 0.398874
0.855655 -3.378776 0.543986 0.659687 -0.636956 0.398874
-0.749202 -3.805109 -0.014494 -0.607983 -0.592130 0.528903
-0.373099 -3.706996 0.527685 -0.607983 -0.592130 0.528903
-0.756466 -3.496069 0.323140 -0.607983 -0.592130 0.528903
-0.749202 -3.805109 -0.014494 -0.089248 -0.967408 0.236973
-0.060325 -3.861107 0.016345 -0.089248 -0.967408 0.236973
-0.373099 -3.706996 0.527685 -0.089248 -0.967408 0.236973
-0.060325 -3.861107 0.016345 0.215030 -0.890916 0.400039
0.245239 -3.579561 0.479121 0.215030 -0.890916 0.400039
-0.373099 -3.706996 0.527685 0.215030 -0.890916 0.400039
-1.075748 -2.770372 -0.125797 -0.730188 0.246239 0.637332
-0.796956 -3.059897 0.305474 -0.730188 0.246239 0.637332
-0.696681 -2.636193 0.256657 -0.730188 0.246239 0.637332
-1.075748 -2.770372 -0.125797 -0.820886 0.056117 0.568329
-1.092691 -3.282494 -0.099702 -0.820886 0.056117 0.568329
-0.796956 -3.059897 0.305474 -0.820886 0.056117 0.568329
-1.092691 -3.282494 -0.099702 -0.793710 -0.049124 0.606310
-0.756466 -3.496069 0.323140 -0.793710 -0.049124 0.606310
-0.796956 -3.059897 0.305474 -0.793710 -0.049124 0.606310
0.000000 -2.000000 0.000000 -0.165151 0.904618 0.392927
-0.311853 -2.270827 0.492436 -0.165151 0.904618 0.392927
0.422970 -2.141737 0.504092 -0.165151 0.904618 0.392927
0.000000 -2.000000 0.000000 -0.384846 0.889706 0.245596
-0.717120 -2.296103 -0.051044 -0.384846 0.889706 0.245596
-0.311853 -2.270827 0.492436 -0.384846 0.889706 0.245596
-0.717120 -2.296103 -0.051044 -0.732506 0.431999 0.526129
-0.696681 -2.636193 0.256657 -0.732506 0.431999 0.526129
-0.311853 -2.270827 0.492436 -0.732506 0.431999 0.526129
1.307687 -2.683542 0.055614 0.905735 0.287845 0.311111
1.038557 -2.482899 0.653491 0.905735 0.287845 0.311111
1.247197 -2.990792 0.515992 0.905735 0.287845 0.311111
1.307687 -2.683542 0.055614 0.725040 0.681759 0.097578
0.836158 -2.182832 0.060881 0.725040 0.681759 0.097578
1.038557 -2.482899 0.653491 0.725040 0.681759 0.097578
0.836158 -2.182832 0.060881 0.406172 0.863640 0.298579
0.422970 -2.141737 0.504092 0.406172 0.863640 0.298579
1.038557 -2.482899 0.653491 0.406172 0.863640 0.298579
0.147212 -3.347711 0.868575 0.114705 -0.305623 0.945218
0.753093 -2.992048 0.910048 0.114705 -0.305623 0.945218
-0.001905 -2.995615 1.000516 0.114705 -0.305623 0.945218
0.147212 -3.347711 0.868575 0.307907 -0.609697 0.730385
0.855655 -3.378776 0.543986 0.307907 -0.609697 0.730385
0.753093 -2.992048 0.910048 0.307907 -0.609697 0.730385
0.855655 -3.378776 0.543986 0.541586 -0.497668 0.677504
1.247197 -2.990792 0.515992 0.541586 -0.497668 0.677504
0.753093 -2.992048 0.910048 0.541586 -0.497668 0.677504
-0.441009 -3.288807 0.775712 -0.182195 -0.411756 0.892895
0.147212 -3.347711 0.868575 -0.182195 -0.411756 0.892895
-0.001905 -2.995615 1.000516 -0.182195 -0.411756 0.892895
-0.441009 -3.288807 0.775712 -0.183767 -0.523342 0.832071
-0.373099 -3.706996 0.527685 -0.183767 -0.523342 0.832071
0.147212 -3.347711 0.868575 -0.183767 -0.523342 0.832071
-0.373099 -3.706996 0.527685 0.210441 -0.815827 0.538648
0.245239 -3.579561 0.479121 0.210441 -0.815827 0.538648
0.147212 -3.347711 0.868575 0.210441 -0.815827 0.538648
-0.419334 -2.770412 0.747368 -0.490261 0.068008 0.868918
-0.441009 -3.288807 0.775712 -0.490261 0.068008 0.868918
-0.001905 -2.995615 1.000516 -0.490261 0.068008 0.868918
-0.419334 -2.770412 0.747368 -0.779680 0.066642 0.622621
-0.796956 -3.059897 0.305474 -0.779680 0.066642 0.622621
-0.441009 -3.288807 0.775712 -0.779680 0.066642 0.622621
-0.796956 -3.059897 0.305474 -0.808132 -0.051254 0.586767
-0.756466 -3.496069 0.323140 -0.808132 -0.051254 0.586767
-0.441009 -3.288807 0.775712 -0.808132 -0.051254 0.586767
0.254925 -2.494728 0.890066 -0.332469 0.362467 0.870679
-0.419334 -2.770412 0.747368 -0.332469 0.362467 0.870679
-0.001905 -2.995615 1.000516 -0.332469 0.362467 0.870679
0.254925 -2.494728 0.890066 -0.366168 0.484259 0.794616
-0.311853 -2.270827 0.492436 -0.366168 0.484259 0.794616
-0.419334 -2.770412 0.747368 -0.366168 0.484259 0.794616
-0.311853 -2.270827 0.492436 -0.731564 0.428136 0.530579
-0.696681 -2.636193 0.256657 -0.731564 0.428136 0.530579
-0.419334 -2.770412 0.747368 -0.731564 0.428136 0.530579
0.753093 -2.992048 0.910048 0.116783 0.156388 0.980767
0.254925 -2.494728 0.890066 0.116783 0.156388 0.980767
-0.001905 -2.995615 1.000516 0.116783 0.156388 0.980767
0.753093 -2.992048 0.910048 0.270717 0.307827 0.912116
1.038557 -2.482899 0.653491 0.270717 0.307827 0.912116
0.254925 -2.494728 0.890066 0.270717 0.307827 0.912116
1.038557 -2.482899 0.653491 0.203379 0.676802 0.707514
0.422970 -2.141737 0.504092 0.203379 0.676802 0.707514
0.254925 -2.494728 0.890066 0.203379 0.676802 0.707514
3 0 1 2
3 3 4 5
3 0 2 6
3 0 6 7
3 0 7 8
3 9 10 11
3 12 13 14
3 15 16 17
3 18 19 20
3 21 22 23
3 24 25 26
3 27 28 29
3 30 31 32
3 33 34 35
3 36 37 38
3 39 40 41
3 42 43 44
3 45 46 47
3 48 49 50
3 51 52 53
3 54 55 56
3 57 58 59
3 60 61 62
3 63 64 65
3 66 67 68
3 1 0 8
3 69 70 71
3 72 73 74
3 75 76 77
3 78 79 80
3 81 82 83
3 84 85 86
3 87 88 89
3 8 7 90
3 91 92 93
3 94 95 96
3 97 98 99
3 100 101 102
3 103 104 105
3 106 107 108
3 109 110 111
3 112 113 114
3 115 116 117
3 118 119 120
3 121 122 123
3 124 125 126
3 127 128 129
3 130 131 132
3 133 134 135
3 136 137 138
3 139 140 141
3 142 143 144
3 145 146 147
3 148 149 150
3 151 152 153
3 154 155 156
3 157 158 159
3 160 161 162
3 163 164 165
3 166 167 168
3 169 170 171
3 172 173 174
3 175 176 177
3 178 179 180
3 181 182 183
3 184 185 186
3 187 188 189
3 190 191 192
3 193 194 195
3 196 197 198
3 199 200 201
3 202 203 204
3 205 206 207
3 208 209 210
3 211 212 213
3 214 215 216
3 217 218 219
3 220 221 222
3 223 224 225
3 226 227 228
